<?xml version="1.0" standalone="no"?>
<!DOCTYPE svg PUBLIC "-//W3C//DTD SVG 20010904//EN"
 "http://www.w3.org/TR/2001/REC-SVG-20010904/DTD/svg10.dtd">
<svg version="1.0" xmlns="http://www.w3.org/2000/svg"
 width="932.000000pt" height="932.000000pt" viewBox="0 0 932.000000 932.000000"
 preserveAspectRatio="xMidYMid meet">
<metadata>
Created by potrace 1.11, written by Peter Selinger 2001-2013
</metadata>
<g transform="translate(0.000000,932.000000) scale(0.100000,-0.100000)"
fill="#000000" stroke="none">
<path d="M6465 7950 l-60 -5 0 -108 c0 -59 -4 -107 -8 -107 -5 0 -5 -4 -2 -10
5 -8 9 -129 5 -155 -4 -26 -2 -94 4 -103 3 -6 3 -13 -1 -15 -5 -3 -8 -66 -7
-140 0 -159 14 -143 -151 -182 -60 -14 -117 -28 -125 -30 -62 -15 -190 -45
-210 -49 -14 -2 -25 -5 -25 -6 0 -1 -9 -3 -20 -5 -11 -1 -31 -5 -45 -8 -14 -3
-77 -15 -140 -27 -139 -27 -134 -26 -190 -38 -25 -6 -70 -13 -100 -16 -70 -8
-118 -14 -150 -21 -14 -3 -45 -7 -70 -10 -40 -4 -97 -12 -140 -20 -8 -2 -44
-6 -80 -10 -36 -4 -68 -9 -72 -11 -4 -3 -31 -7 -60 -9 -29 -3 -64 -7 -78 -10
-14 -3 -45 -7 -70 -10 -25 -3 -56 -7 -70 -10 -27 -6 -74 -12 -165 -20 -33 -3
-76 -8 -95 -10 -19 -3 -68 -7 -108 -11 -40 -3 -81 -7 -90 -9 -9 -1 -55 -6
-102 -10 -47 -4 -94 -9 -105 -12 -11 -2 -26 -4 -32 -4 -7 1 -19 1 -25 2 -7 0
-40 -2 -73 -5 -33 -3 -91 -8 -130 -11 -38 -3 -97 -7 -130 -10 -33 -3 -91 -7
-130 -10 -38 -2 -99 -7 -135 -11 -36 -4 -76 -8 -90 -9 -14 -1 -27 -3 -30 -5
-6 -3 -29 -6 -57 -8 -22 -2 -22 -3 -6 -49 9 -27 19 -52 23 -58 4 -5 13 -28 20
-50 7 -22 16 -44 20 -50 3 -5 14 -30 23 -55 9 -25 22 -58 28 -75 7 -16 13 -32
14 -35 1 -3 6 -16 12 -30 6 -14 26 -61 44 -105 18 -44 38 -83 44 -87 5 -4 7
-8 3 -8 -3 0 7 -27 23 -60 16 -33 29 -62 29 -65 0 -4 71 -155 135 -288 18 -37
37 -73 42 -80 5 -6 16 -28 24 -47 7 -19 30 -65 50 -102 21 -38 35 -68 32 -68
-3 0 1 -8 9 -17 8 -10 18 -25 22 -33 3 -8 21 -41 39 -72 17 -31 63 -112 101
-180 37 -68 130 -225 205 -350 75 -125 141 -238 148 -250 9 -18 183 -285 253
-388 150 -223 230 -343 230 -346 0 -4 153 -223 169 -241 6 -7 11 -14 11 -17 0
-3 21 -34 48 -70 26 -35 74 -103 107 -151 33 -48 65 -93 70 -99 6 -7 15 -19
20 -28 24 -39 160 -224 169 -230 6 -4 8 -8 4 -8 -3 0 2 -10 13 -23 10 -12 85
-114 166 -227 81 -113 149 -207 152 -210 3 -3 11 -13 16 -22 13 -21 177 -251
185 -258 3 -3 21 -27 40 -55 19 -27 38 -54 43 -60 13 -16 170 -235 187 -260 8
-13 49 -68 90 -123 85 -114 67 -112 176 -15 68 61 149 123 159 123 3 0 30 18
60 40 30 22 56 40 59 40 3 0 24 13 48 28 39 26 237 125 313 157 108 46 347
127 426 145 52 12 122 28 156 36 35 8 79 17 99 20 20 2 40 7 45 10 5 3 19 7
32 9 12 2 40 7 62 10 22 4 47 8 55 10 8 2 21 4 28 4 16 1 16 1 -93 95 -44 38
-93 80 -110 95 -16 14 -61 53 -100 85 -38 33 -99 90 -135 127 -132 135 -231
242 -252 272 -26 37 -27 38 -70 93 -69 87 -208 296 -208 313 0 5 -3 11 -7 13
-5 2 -17 21 -29 43 -33 64 -86 158 -100 180 -8 11 -14 22 -14 26 0 4 139 -131
308 -300 170 -168 319 -314 333 -323 13 -9 33 -24 44 -33 37 -28 93 -70 121
-90 15 -11 32 -25 38 -30 6 -6 47 -34 91 -63 44 -29 85 -55 90 -60 27 -19 72
-44 88 -49 9 -3 17 -9 17 -14 0 -5 7 -9 15 -9 8 0 15 -4 15 -8 0 -4 12 -13 28
-19 27 -12 62 -33 72 -43 3 -3 55 -31 117 -63 115 -58 152 -68 154 -42 1 8 2
18 3 23 1 4 5 25 10 47 9 44 28 90 86 207 21 42 36 79 33 82 -4 3 -1 6 5 6 7
0 12 4 12 10 0 5 7 18 15 27 23 29 99 129 115 153 8 13 62 54 120 91 58 38
111 74 119 81 13 11 161 64 206 73 37 9 98 16 164 21 36 3 77 7 91 9 14 2 31
3 39 4 8 1 3 13 -15 35 -34 39 -47 56 -94 116 -19 25 -38 47 -41 50 -3 3 -54
66 -113 140 -59 74 -115 144 -124 155 -15 18 -135 166 -154 190 -5 6 -20 24
-34 40 -13 17 -44 55 -67 84 -23 30 -53 66 -66 80 -13 15 -35 42 -50 61 -14
19 -28 37 -32 40 -3 3 -32 39 -65 80 -33 41 -67 84 -76 95 -116 141 -178 220
-258 325 -52 69 -127 168 -168 220 -40 52 -103 138 -140 190 -36 52 -72 101
-79 108 -7 7 -13 17 -13 21 0 4 -11 21 -24 36 -13 15 -30 40 -38 54 -7 14 -15
28 -18 31 -3 3 -17 21 -30 40 -13 19 -27 37 -30 40 -3 3 -21 30 -40 60 -19 30
-37 57 -41 60 -4 3 -52 82 -107 175 -56 94 -105 175 -110 181 -5 6 -24 37 -42
70 -18 32 -36 61 -39 64 -10 7 -298 591 -306 620 -4 14 -16 43 -25 65 -57 128
-93 236 -96 280 -3 56 -11 318 -20 625 -3 112 -8 208 -10 212 -5 8 -177 6
-279 -2z"/>
<path d="M2504 7719 c-11 -3 -22 -5 -27 -2 -4 2 -15 2 -25 -1 -16 -6 -18 -19
-15 -144 5 -296 14 -808 17 -1013 2 -119 6 -221 9 -226 4 -6 0 -19 -8 -29 -8
-10 -15 -29 -15 -41 0 -13 -4 -23 -10 -23 -5 0 -10 -6 -10 -13 0 -7 -22 -65
-50 -129 -27 -64 -50 -121 -50 -127 0 -6 -5 -11 -12 -11 -6 0 -8 -3 -5 -6 3
-4 1 -16 -5 -28 -7 -11 -13 -23 -13 -26 -1 -3 -9 -22 -18 -44 -9 -21 -17 -40
-17 -42 0 -2 -9 -23 -19 -47 -31 -67 -132 -301 -135 -312 -6 -22 -69 -163
-148 -335 -17 -36 -31 -71 -31 -77 0 -7 -4 -13 -9 -13 -4 0 -8 -4 -8 -10 0 -5
-13 -38 -29 -72 -15 -35 -38 -85 -50 -113 -67 -152 -102 -226 -186 -400 -42
-88 -100 -207 -128 -265 -28 -58 -51 -107 -52 -110 -2 -11 -139 -273 -175
-335 -17 -29 -101 -186 -144 -270 -12 -22 -23 -42 -26 -45 -3 -3 -23 -39 -44
-80 -21 -41 -93 -166 -160 -278 -66 -111 -127 -215 -135 -230 -8 -15 -18 -28
-23 -30 -4 -2 -8 -8 -8 -13 0 -5 -12 -28 -27 -52 -15 -23 -36 -57 -46 -76 -22
-39 -382 -577 -427 -636 -16 -22 -33 -46 -37 -54 -3 -8 -13 -22 -21 -30 -17
-19 -159 -219 -173 -244 -10 -17 33 -18 964 -16 536 1 980 5 987 9 10 6 133
406 155 504 3 11 11 40 19 65 15 50 47 184 52 216 1 11 5 31 8 45 5 23 20 93
30 145 3 11 11 52 19 90 9 39 18 90 22 115 4 24 8 47 10 50 2 3 6 29 10 59 4
30 9 63 11 75 2 12 7 37 10 56 8 50 13 81 19 110 2 13 7 42 10 65 3 22 8 54
12 70 3 17 7 44 9 60 1 17 5 39 7 50 3 11 8 51 12 88 3 37 8 76 9 85 5 26 15
102 21 152 6 49 12 98 20 159 3 21 7 58 10 82 2 24 6 53 8 64 3 11 8 54 12 95
4 41 8 77 10 80 2 3 6 34 10 70 3 36 8 76 10 90 2 14 6 43 9 65 5 34 10 74 31
245 2 14 7 50 10 80 4 30 8 62 10 70 2 9 6 43 9 75 4 32 9 72 11 89 3 17 7 47
9 66 3 19 16 105 30 190 14 85 28 178 32 205 13 101 24 145 35 145 5 0 10 -8
10 -17 3 -38 16 -133 25 -178 3 -16 7 -41 9 -55 6 -57 17 -137 21 -160 8 -42
24 -161 29 -210 7 -76 17 -168 20 -190 2 -14 7 -54 10 -90 7 -74 11 -117 20
-186 3 -27 8 -69 10 -94 2 -25 7 -67 10 -95 2 -27 7 -72 10 -100 2 -27 7 -69
10 -92 3 -24 7 -62 10 -85 3 -24 8 -63 10 -88 4 -41 7 -75 20 -185 2 -22 7
-69 10 -105 3 -36 9 -81 12 -100 4 -19 6 -38 5 -41 0 -3 3 -35 8 -70 14 -97
28 -208 34 -264 2 -16 7 -52 11 -80 4 -27 9 -59 10 -70 2 -11 15 -92 29 -180
15 -88 29 -173 32 -190 13 -83 17 -105 31 -160 8 -33 17 -69 18 -80 7 -39 16
-81 36 -165 12 -47 22 -94 24 -105 5 -35 35 -158 50 -202 8 -23 16 -52 19 -65
2 -13 14 -52 26 -88 11 -36 22 -72 24 -80 2 -8 5 -22 9 -30 3 -8 11 -37 18
-65 6 -27 18 -57 26 -66 7 -9 10 -18 7 -22 -11 -11 35 -17 256 -32 30 -2 82
-6 115 -9 33 -3 97 -8 143 -11 46 -3 98 -7 115 -10 18 -2 66 -7 107 -10 128
-9 203 -15 245 -20 22 -3 76 -7 120 -11 97 -7 150 -12 150 -14 0 -1 29 -3 65
-5 107 -7 192 -14 240 -19 25 -3 79 -8 120 -11 41 -3 95 -7 120 -10 25 -2 77
-7 115 -10 39 -2 93 -7 120 -10 28 -2 75 -7 105 -9 30 -3 78 -8 105 -11 28 -2
77 -7 110 -10 83 -8 132 -14 188 -21 l48 -6 -18 36 c-9 20 -20 36 -25 36 -4 0
-8 7 -8 15 0 8 -4 15 -8 15 -5 0 -17 16 -28 35 -10 19 -21 35 -25 35 -3 0 -20
23 -38 50 -18 28 -38 56 -44 63 -7 7 -16 20 -22 29 -16 26 -159 223 -166 228
-3 3 -18 23 -32 45 -15 22 -44 63 -64 92 -21 28 -83 114 -137 190 -55 76 -102
140 -105 143 -3 3 -26 34 -50 70 -25 36 -48 67 -51 70 -4 3 -21 28 -40 55 -18
28 -43 62 -54 76 -12 14 -28 36 -36 49 -8 12 -29 41 -46 64 -17 22 -77 106
-134 186 -57 80 -109 150 -114 156 -6 6 -20 27 -31 47 -11 20 -23 37 -27 37
-5 0 -8 5 -8 11 0 6 -6 16 -12 23 -7 8 -19 22 -25 32 -7 11 -35 52 -63 92 -27
41 -50 77 -50 82 0 5 -4 10 -8 12 -7 3 -66 85 -97 136 -5 9 -15 22 -22 29 -6
7 -21 29 -34 50 -13 21 -26 40 -29 43 -3 3 -28 39 -54 80 -27 41 -73 111 -101
155 -195 299 -245 377 -275 430 -18 33 -36 62 -39 65 -10 9 -42 64 -48 83 -3
9 -9 17 -14 17 -5 0 -9 4 -9 9 0 6 -57 106 -128 223 -175 292 -580 1105 -698
1403 l-88 220 -3 445 c-1 245 -5 488 -7 540 -3 52 -8 150 -11 218 -2 68 -7
127 -10 132 -3 5 -34 8 -69 8 -34 -1 -68 2 -74 6 -6 3 -13 3 -16 -2 -3 -5 -27
-6 -54 -2 -27 3 -58 3 -68 -1z"/>
</g>
</svg>
